HIERARCHY
ROOT Hips
{
	OFFSET 0.00000 0.00000 0.00000
	CHANNELS 6 Xposition Yposition Zposition Zrotation Yrotation Xrotation 
	JOINT LHipJoint
	{
		OFFSET 0 0 0
		CHANNELS 3 Zrotation Yrotation Xrotation
		JOINT LeftHip
		{
			OFFSET 1.34019 -1.87553 0.90315
			CHANNELS 3 Zrotation Yrotation Xrotation
			JOINT LeftKnee
			{
				OFFSET 2.55316 -7.01474 0.00000
				CHANNELS 3 Zrotation Yrotation Xrotation
				JOINT LeftAnkle
				{
					OFFSET 2.64657 -7.27139 0.00000
					CHANNELS 3 Zrotation Yrotation Xrotation
					JOINT LeftToe
					{
						OFFSET 0.24207 -0.66507 2.14489
						CHANNELS 3 Zrotation Yrotation Xrotation
						End Site
						{
							OFFSET 0.00000 -0.00000 1.12451
						}
					}
				}
			}
		}
	}
	JOINT RHipJoint
	{
		OFFSET 0 0 0
		CHANNELS 3 Zrotation Yrotation Xrotation
		JOINT RightHip
		{
			OFFSET -1.28320 -1.87553 0.90315
			CHANNELS 3 Zrotation Yrotation Xrotation
			JOINT RightKnee
			{
				OFFSET -2.60484 -7.15674 0.00000
				CHANNELS 3 Zrotation Yrotation Xrotation
				JOINT RightAnkle
				{
					OFFSET -2.60296 -7.15159 0.00000
					CHANNELS 3 Zrotation Yrotation Xrotation
					JOINT RightToe
					{
						OFFSET -0.31082 -0.85398 2.28998
						CHANNELS 3 Zrotation Yrotation Xrotation
						End Site
						{
							OFFSET -0.00000 -0.00000 1.21611
						}
					}
				}
			}
		}
	}
	JOINT lowerback
	{
		OFFSET 0 0 0
		CHANNELS 3 Zrotation Yrotation Xrotation
		JOINT Chest
		{
			OFFSET -0.00160 2.05581 -0.15156
			CHANNELS 3 Zrotation Yrotation Xrotation
			JOINT Chest2
			{
				OFFSET 0.04594 2.06326 -0.01617
				CHANNELS 3 Zrotation Yrotation Xrotation
				JOINT lowerneck
				{
					OFFSET 0 0 0
					CHANNELS 3 Zrotation Yrotation Xrotation
					JOINT Neck
					{
						OFFSET 0.03753 1.73883 0.26751
						CHANNELS 3 Zrotation Yrotation Xrotation
						JOINT Head
						{
							OFFSET -0.09795 1.76129 -0.31794
							CHANNELS 3 Zrotation Yrotation Xrotation
							End Site
							{
								OFFSET -0.03611 1.79987 -0.13846
							}
						}
					}
				}
				JOINT LeftCollar
				{
					OFFSET 0 0 0
					CHANNELS 3 Zrotation Yrotation Xrotation
					JOINT LeftShoulder
					{
						OFFSET 3.30667 1.29205 -0.22445
CHANNELS 3 Zrotation Xrotation Yrotation
						JOINT LeftElbow
						{
OFFSET 0 -4.927850 -0.000000
CHANNELS 3 Zrotation Xrotation Yrotation
							JOINT LeftWrist
							{
OFFSET 0 -3.440520 0.000000
CHANNELS 3 Zrotation Xrotation Yrotation
								JOINT lhand
								{
									OFFSET 0 0 0
CHANNELS 3 Zrotation Xrotation Yrotation
									JOINT LFingers
									{
OFFSET 0 -0.654330 0.000000
CHANNELS 3 Zrotation Xrotation Yrotation
										End Site
										{
OFFSET 0 -0.527530 0.000000
										}
									}
								}
								JOINT LThumb
								{
OFFSET 0 0.000000 0.000000
CHANNELS 3 Zrotation Xrotation Yrotation
									End Site
									{
OFFSET 0 -0.535590 0.535590
									}
								}
							}
						}
					}
				}
				JOINT RightCollar
				{
					OFFSET 0 0 0
					CHANNELS 3 Zrotation Yrotation Xrotation
					JOINT RightShoulder
					{
						OFFSET -3.20032 1.49783 -0.27688
CHANNELS 3 Zrotation Xrotation Yrotation
						JOINT RightElbow
						{
OFFSET 0 -5.091810 -0.000000
CHANNELS 3 Zrotation Xrotation Yrotation
							JOINT RightWrist
							{
OFFSET 0 -3.498650 -0.000000
CHANNELS 3 Zrotation Xrotation Yrotation
								JOINT rhand
								{
									OFFSET 0 0 0
CHANNELS 3 Zrotation Xrotation Yrotation
									JOINT RFingers
									{
OFFSET 0 -0.666410 0.000000
CHANNELS 3 Zrotation Xrotation Yrotation
										End Site
										{
OFFSET 0 -0.537280 0.000000
										}
									}
								}
								JOINT RThumb
								{
OFFSET 0 0.000000 0.000000
CHANNELS 3 Zrotation Xrotation Yrotation
									End Site
									{
OFFSET 0 -0.545480 0.545480
									}
								}
							}
						}
					}
				}
			}
		}
	}
}
MOTION
Frames: 16
Frame Time: .0083333
-0.0020 17.8698 -29.1405 -1.1345 36.9610 0.7524 0.0000 0.0000 0.0000 -13.0163 -14.2387 -9.7624 2.1332 9.1382 26.2287 0.3087 -7.9953 -10.6161 0.2687 -3.3348 -9.2122 0.0000 0.0000 0.0000 20.5649 -14.2990 -5.9929 -1.9887 -8.8426 25.3041 2.2919 -32.7978 -34.9581 -0.0395 -1.2831 3.5282 2.9207 7.0590 3.0013 2.8122 9.5555 0.4686 0.8972 4.7722 -1.1912 20.5008 18.5997 3.7204 -23.7714 29.1405 9.1680 -7.5812 14.4185 8.9352 -0.0000 0.0000 0.0000 2.2742 -5.9833 -5.7103 10.6505 -17.7506 1.6678 22.3322 -8.0972 8.5118 0.0 0.0 0.0 -7.1250 0.0 0.0 -3.2799 20.7959 -1.9048 -0.0000 0.0000 0.0000 -18.0882 11.58 5.6051 -27.6855 -38.8251 -9.9259 -16.3377 -13.7014 1.2663 0.0 0.0 0.0 7.1250 0.0 -0.0 8.1564 31.2368 2.769
-0.0018 17.8694 -29.1340 -0.9627 37.0939 0.9027 0.0000 0.0000 0.0000 -13.1891 -14.6497 -9.6402 2.1312 9.1342 26.2161 0.3175 -7.6805 -10.6409 0.2720 -3.3545 -9.2672 0.0000 0.0000 0.0000 20.4329 -14.4138 -6.1069 -2.0033 -8.8729 25.3985 2.2617 -32.7383 -35.0157 -0.0396 -1.2847 3.5325 2.0678 6.0891 2.5320 3.7893 8.2181 1.0625 2.4810 4.1211 -0.5853 18.0165 19.5830 3.9024 -24.1346 30.4622 8.3720 -7.1330 15.0225 8.6158 -0.0000 -0.0000 0.0000 0.3256 -6.1941 -2.3944 10.8311 -18.029 1.7233 22.1741 -7.8044 8.7221 0.0 0.0 0.0 -7.1250 0.0 0.0 -3.3983 20.5807 -1.9903 -0.0000 -0.0000 0.0000 -19.8593 10.6835 7.9606 -27.9823 -39.0999 -10.1125 -16.6812 -13.1562 0.9144 0.0 0.0 0.0 7.1250 0.0 -0.0 7.8524 30.8795 2.7319
-0.0017 17.8694 -29.1285 -0.9543 37.1923 0.9181 0.0000 0.0000 0.0000 -13.1888 -14.6680 -9.6621 2.1364 9.1445 26.2484 0.3164 -7.7599 -10.6490 0.2751 -3.3739 -9.3216 0.0000 0.0000 0.0000 20.4408 -14.4865 -6.1411 -2.0084 -8.8835 25.4315 2.3020 -32.8101 -34.9233 -0.0366 -1.2351 3.3959 1.4431 5.1745 2.2445 4.7045 6.9711 1.5888 3.8583 3.5022 -0.0348 15.5404 20.5495 3.8314 -24.4243 31.6940 7.6299 -6.6866 15.5829 8.3012 -0.0000 -0.0000 0.0000 -1.4959 -6.4225 0.3708 11.0494 -18.364 1.7915 22.3605 -7.7716 8.7183 0.0 0.0 0.0 -7.1250 0.0 0.0 -3.2640 20.5719 -1.912 -0.0000 -0.0000 0.0000 -21.4417 9.8989 10.1625 -28.3277 -39.4162 -10.3311 -16.5468 -12.5719 1.1893 0.0 0.0 0.0 7.1250 0.0 -0.0 7.9836 31.1612 2.7239
-0.0037 17.8678 -29.1200 -0.9203 37.2806 0.9096 0.0000 0.0000 0.0000 -13.1810 -14.4263 -9.7451 2.1401 9.1521 26.2722 0.3043 -8.0930 -10.5890 0.2707 -3.3467 -9.2455 0.0000 0.0000 0.0000 20.4350 -14.5279 -6.1126 -2.0133 -8.8936 25.4632 2.3120 -32.8652 -34.9776 -0.0363 -1.2298 3.3813 1.5397 5.4110 2.3707 4.3794 7.2949 1.4069 3.4377 3.6634 -0.2564 16.0690 20.3903 4.0491 -23.7742 31.3482 7.7170 -6.6517 15.4505 8.1769 0.0000 0.0000 0.0000 -1.0258 -6.1469 -0.7235 11.0283 -18.3316 1.7848 22.4807 -8.0184 8.7767 0.0 0.0 0.0 -7.1250 0.0 0.0 -3.1788 20.5007 -1.867 0.0000 0.0000 0.0000 -20.7342 10.046 9.6336 -27.6646 -38.8056 -9.9128 -17.0738 -12.2794 0.9013 0.0 0.0 0.0 7.1250 0.0 -0.0 7.5410 30.8722 2.6232
-0.0052 17.8671 -29.1116 -0.9136 37.3601 0.8943 0.0000 0.0000 0.0000 -13.1712 -14.4031 -9.7494 2.1465 9.1649 26.3124 0.3020 -8.1868 -10.5882 0.2727 -3.3593 -9.2808 0.0000 0.0000 0.0000 20.4551 -14.5591 -6.0764 -2.0131 -8.8933 25.4621 2.3348 -32.9375 -34.9911 -0.0355 -1.2154 3.3416 1.3557 5.2198 2.3322 4.5414 7.0343 1.5047 3.7224 3.5331 -0.1638 15.4184 20.6559 4.0982 -23.4762 31.5938 7.5156 -6.4598 15.5746 7.9876 0.0000 -0.0000 0.0000 -1.4609 -6.1132 -0.2312 11.0719 -18.3984 1.7986 22.4979 -7.9781 8.9349 0.0 0.0 0.0 -7.1250 0.0 0.0 -3.1702 20.3293 -1.8742 0.0000 -0.0000 0.0000 -20.9093 9.8178 10.119 -27.3681 -38.5279 -9.7275 -17.4462 -11.9193 0.7954 0.0 0.0 0.0 7.1250 0.0 -0.0 7.2379 30.7679 2.5344
-0.0073 17.8663 -29.1025 -0.9453 37.4235 0.8434 0.0000 0.0000 0.0000 -13.1278 -14.3824 -9.7324 2.1523 9.1764 26.3486 0.3005 -8.2566 -10.5911 0.2748 -3.3719 -9.3160 0.0000 0.0000 0.0000 20.5133 -14.5573 -6.0094 -2.0113 -8.8896 25.4505 2.3594 -33.0262 -35.0292 -0.0349 -1.2063 3.3166 1.2667 5.1540 2.3297 4.5910 6.9445 1.5387 3.8271 3.4881 -0.1391 15.0718 20.7987 4.1607 -23.0808 31.6699 7.4080 -6.3099 15.6218 7.8228 -0.0000 -0.0000 0.0000 -1.6717 -6.0362 -0.1042 11.0825 -18.4145 1.8019 22.4767 -7.914 9.1325 0.0 0.0 0.0 -7.1250 0.0 0.0 -3.1905 20.1183 -1.9013 -0.0000 -0.0000 0.0000 -20.8459 9.6795 10.3207 -26.9601 -38.1411 -9.4745 -17.8772 -11.5984 0.7483 0.0 0.0 0.0 7.1250 0.0 -0.0 6.8937 30.725 2.4194
-0.0096 17.8653 -29.0928 -0.9927 37.4787 0.7751 0.0000 0.0000 0.0000 -13.0746 -14.4032 -9.6870 2.1585 9.1887 26.3876 0.3014 -8.2713 -10.6068 0.2774 -3.3875 -9.3595 0.0000 0.0000 0.0000 20.5884 -14.5391 -5.9196 -2.0075 -8.8817 25.4259 2.3825 -33.1199 -35.0875 -0.0347 -1.2031 3.3077 1.2235 5.1596 2.3399 4.5775 6.9513 1.5411 3.8358 3.4913 -0.1462 14.8924 20.8734 4.2475 -22.6407 31.6544 7.3385 -6.1869 15.6288 7.6677 0.0000 0.0000 0.0000 -1.7616 -5.9459 -0.1646 11.0694 -18.3945 1.7977 22.4256 -7.8202 9.3567 0.0 0.0 0.0 -7.1250 0.0 0.0 -3.2328 19.8809 -1.9439 0.0000 0.0000 0.0000 -20.6466 9.5881 10.3599 -26.4843 -37.683 -9.1821 -18.4064 -11.2941 0.7028 0.0 0.0 0.0 7.1250 0.0 -0.0 6.4721 30.6846 2.276
-0.0118 17.8644 -29.0829 -1.0457 37.5292 0.7044 0.0000 0.0000 0.0000 -13.0200 -14.4642 -9.6256 2.1654 9.2024 26.4306 0.3041 -8.2406 -10.6335 0.2819 -3.4149 -9.4361 0.0000 0.0000 0.0000 20.6684 -14.5200 -5.8266 -2.0028 -8.8720 25.3957 2.4045 -33.2091 -35.1434 -0.0347 -1.2017 3.3041 1.1760 5.1706 2.3384 4.5699 6.9649 1.5475 3.8540 3.4980 -0.1442 14.6996 20.9446 4.3233 -22.1917 31.6338 7.2747 -6.0615 15.6322 7.5128 0.0000 0.0000 0.0000 -1.8645 -5.8672 -0.212 11.0504 -18.3655 1.7918 22.3554 -7.6968 9.5951 0.0 0.0 0.0 -7.1250 0.0 0.0 -3.2895 19.63 -1.9965 0.0000 0.0000 0.0000 -20.444 9.4974 10.3888 -25.9953 -37.2041 -8.8848 -19.0046 -10.9696 0.6825 0.0 0.0 0.0 7.1250 0.0 -0.0 5.9979 30.6709 2.1095
-0.0139 17.8633 -29.0730 -1.0921 37.5804 0.6401 0.0000 0.0000 0.0000 -12.9698 -14.5149 -9.5724 2.1726 9.2166 26.4753 0.3064 -8.2245 -10.6575 0.2847 -3.4316 -9.4827 0.0000 0.0000 0.0000 20.7414 -14.5074 -5.7380 -1.9986 -8.8631 25.3680 2.4217 -33.2868 -35.2041 -0.0347 -1.2032 3.3081 1.1237 5.1832 2.3331 4.5584 6.9803 1.5521 3.8710 3.5055 -0.1422 14.4995 21.0165 4.3963 -21.7282 31.6131 7.2125 -5.9328 15.6353 7.3564 -0.0000 -0.0000 0.0000 -1.967 -5.7912 -0.284 11.0325 -18.338 1.7861 22.306 -7.6069 9.7994 0.0 0.0 0.0 -7.1250 0.0 0.0 -3.3304 19.4145 -2.0374 -0.0000 -0.0000 0.0000 -20.226 9.42 10.4042 -25.4987 -36.7094 -8.5862 -19.5666 -10.6004 0.6845 0.0 0.0 0.0 7.1250 0.0 -0.0 5.5535 30.68 1.9507
-0.0156 17.8622 -29.0635 -1.1270 37.6342 0.5895 0.0000 0.0000 0.0000 -12.9282 -14.5519 -9.5348 2.1800 9.2313 26.5217 0.3079 -8.2305 -10.6790 0.2872 -3.4466 -9.5246 0.0000 0.0000 0.0000 20.8014 -14.5079 -5.6637 -1.9952 -8.8560 25.3460 2.4335 -33.3470 -35.2606 -0.0349 -1.2067 3.3177 1.0672 5.1924 2.3242 4.5429 6.9910 1.5535 3.8866 3.5106 -0.1413 14.2818 21.0944 4.4856 -21.2735 31.5995 7.1226 -5.8081 15.6437 7.1898 0.0000 0.0000 0.0000 -2.0769 -5.7236 -0.3553 11.0149 -18.3111 1.7806 22.2991 -7.5479 9.9641 0.0 0.0 0.0 -7.1250 0.0 0.0 -3.3401 19.2382 -2.0565 0.0000 0.0000 0.0000 -19.9956 9.3553 10.407 -24.9996 -36.2035 -8.2896 -20.1036 -10.1843 0.7065 0.0 0.0 0.0 7.1250 0.0 -0.0 5.1298 30.7096 1.7971
-0.0167 17.8609 -29.0546 -1.1385 37.6918 0.5604 0.0000 0.0000 0.0000 -12.9057 -14.5638 -9.5190 2.1877 9.2466 26.5698 0.3081 -8.2716 -10.6949 0.2910 -3.4689 -9.5870 0.0000 0.0000 0.0000 20.8356 -14.5293 -5.6075 -1.9929 -8.8513 25.3312 2.4424 -33.3903 -35.2987 -0.0351 -1.2095 3.3254 0.9989 5.2010 2.3135 4.5179 7.0007 1.5486 3.8987 3.5152 -0.1459 14.0527 21.1728 4.5458 -20.7811 31.5828 7.0552 -5.6702 15.6479 7.0272 0.0000 0.0000 0.0000 -2.1828 -5.6474 -0.4815 11.0048 -18.2956 1.7774 22.3324 -7.5475 10.0778 0.0 0.0 0.0 -7.1250 0.0 0.0 -3.3198 19.1135 -2.0532 0.0000 0.0000 0.0000 -19.7507 9.3047 10.3883 -24.4902 -35.6784 -7.9907 -20.5043 -9.7367 0.7453 0.0 0.0 0.0 7.1250 0.0 -0.0 4.8148 30.7556 1.6807
-0.0173 17.8596 -29.0461 -1.1425 37.7459 0.5378 0.0000 0.0000 0.0000 -12.8903 -14.5562 -9.5153 2.1959 9.2627 26.6205 0.3076 -8.3343 -10.7088 0.2926 -3.4782 -9.6132 0.0000 0.0000 0.0000 20.8574 -14.5624 -5.5611 -1.9915 -8.8484 25.3222 2.4478 -33.4192 -35.3280 -0.0353 -1.2122 3.3329 0.9296 5.2031 2.3019 4.4925 7.0018 1.5423 3.9112 3.5154 -0.1511 13.7817 21.2640 4.5923 -20.2380 31.5776 7.0056 -5.5128 15.6561 6.8600 -0.0000 -0.0000 0.0000 -2.3026 -5.5804 -0.5635 10.9908 -18.2741 1.773 22.3934 -7.5288 10.1687 0.0 0.0 0.0 -7.1250 0.0 0.0 -3.2792 19.011 -2.0355 -0.0000 -0.0000 0.0000 -19.4961 9.2529 10.3502 -23.9752 -35.138 -7.6923 -20.8434 -9.3178 0.7321 0.0 0.0 0.0 7.1250 0.0 -0.0 4.5453 30.7455 1.5872
-0.0174 17.8579 -29.0374 -1.1353 37.7957 0.5167 0.0000 0.0000 0.0000 -12.8889 -14.5452 -9.5030 2.2044 9.2795 26.6736 0.3078 -8.3950 -10.7314 0.2955 -3.4954 -9.6612 0.0000 0.0000 0.0000 20.8619 -14.6138 -5.5138 -1.9906 -8.8465 25.3164 2.4503 -33.4346 -35.3452 -0.0353 -1.2132 3.3355 0.8611 5.2024 2.2945 4.4580 6.9990 1.5355 3.9137 3.5136 -0.1576 13.4980 21.3570 4.6201 -19.6704 31.5703 6.9578 -5.3480 15.6622 6.6909 -0.0000 -0.0000 0.0000 -2.4161 -5.5226 -0.6112 10.9668 -18.2374 1.7655 22.4648 -7.4514 10.2554 0.0 0.0 0.0 -7.1250 0.0 0.0 -3.2313 18.912 -2.0128 -0.0000 -0.0000 0.0000 -19.2225 9.2 10.2981 -23.4463 -34.5732 -7.39 -21.0896 -8.9451 0.6702 0.0 0.0 0.0 7.1250 0.0 -0.0 4.3469 30.682 1.5242
-0.0174 17.8559 -29.0290 -1.1371 37.8311 0.4902 0.0000 0.0000 0.0000 -12.8813 -14.5446 -9.4862 2.2134 9.2972 26.7295 0.3091 -8.4315 -10.7598 0.2975 -3.5073 -9.6946 0.0000 0.0000 0.0000 20.8722 -14.6581 -5.4673 -1.9898 -8.8448 25.3111 2.4553 -33.4521 -35.3530 -0.0352 -1.2107 3.3287 0.8085 5.2038 2.2928 4.4192 6.9996 1.5272 3.9023 3.5136 -0.1667 13.2271 21.4440 4.6394 -19.1155 31.5552 6.8902 -5.1908 15.6644 6.5214 -0.0000 0.0000 0.0000 -2.523 -5.4713 -0.639 10.9402 -18.1966 1.7572 22.536 -7.3506 10.3148 0.0 0.0 0.0 -7.1250 0.0 0.0 -3.1828 18.8424 -1.9874 -0.0000 0.0000 0.0000 -18.9304 9.1426 10.2281 -22.9158 -33.9966 -7.0911 -21.2583 -8.6488 0.6457 0.0 0.0 0.0 7.1250 0.0 -0.0 4.2119 30.6576 1.4791
-0.0171 17.8540 -29.0207 -1.1355 37.8545 0.4624 0.0000 0.0000 0.0000 -12.8809 -14.5572 -9.4557 2.2226 9.3151 26.7861 0.3116 -8.4401 -10.7955 0.2977 -3.5086 -9.6981 0.0000 0.0000 0.0000 20.8752 -14.7034 -5.4174 -1.9887 -8.8426 25.3042 2.4631 -33.4706 -35.3461 -0.0347 -1.2026 3.3064 1.0341 5.5953 2.4025 3.9552 7.5282 1.3141 3.2614 3.7772 -0.3886 14.1067 21.1017 4.7674 -18.5066 30.9955 6.9559 -5.2185 15.4187 6.4571 -0.0000 -0.0000 0.0000 -1.8354 -5.2989 -1.9275 10.8278 -18.0238 1.7223 22.5929 -7.3073 10.3849 0.0 0.0 0.0 -7.1250 0.0 0.0 -3.1448 18.7623 -1.9692 -0.0000 -0.0000 0.0000 -17.9228 9.3033 9.2725 -22.1360 -33.1304 -6.66 -21.3528 -8.6223 0.6967 0.0 0.0 0.0 7.1250 0.0 -0.0 4.1397 30.7132 1.4481
-0.0166 17.8520 -29.0125 -1.1272 37.8679 0.4365 0.0000 0.0000 0.0000 -12.8892 -14.5775 -9.4139 2.2315 9.3325 26.8410 0.3150 -8.4279 -10.8352 0.2988 -3.5148 -9.7155 0.0000 0.0000 0.0000 20.8687 -14.7535 -5.3650 -1.9873 -8.8396 25.2947 2.4722 -33.4850 -35.3225 -0.0340 -1.1899 3.2713 1.1631 5.8506 2.4790 3.6362 7.8712 1.1983 2.8389 3.9471 -0.5053 14.5937 20.9051 4.7913 -18.0566 30.6361 6.9250 -5.2102 15.2592 6.3800 -0.0000 -0.0000 0.0000 -1.4275 -5.236 -2.745 10.7353 -17.8814 1.6937 22.6592 -7.1802 10.4423 0.0 0.0 0.0 -7.1250 0.0 0.0 -3.0999 18.6951 -1.9456 -0.0000 -0.0000 0.0000 -17.1237 9.4342 8.6108 -21.5400 -32.4533 -6.3372 -21.4582 -8.6469 0.762 0.0 0.0 0.0 7.1250 0.0 -0.0 4.0593 30.7843 1.4129
